<svg width="200" height="200" viewBox="0 0 200 200" fill="none" xmlns="http://www.w3.org/2000/svg">
<rect x="60" y="80" width="20" height="20" fill="#FFE4D0"/>
<rect x="80" y="180" width="20" height="20" fill="#FBFF3F"/>
<rect x="80" y="160" width="20" height="20" fill="#F8F6F5"/>
<rect x="20" y="123" width="20" height="20" fill="#F8F6F5"/>
<rect x="80" y="120" width="20" height="40" fill="black"/>
<rect x="20" y="103" width="20" height="20" fill="black"/>
<rect x="40" y="83" width="20" height="20" fill="black"/>
<rect x="140" y="83" width="20" height="20" fill="black"/>
<rect x="160" y="83" width="20" height="20" fill="black"/>
<rect x="180" y="100" width="20" height="20" fill="black"/>
<rect x="120" y="180" width="20" height="20" fill="#FBFF3F"/>
<rect x="120" y="160" width="20" height="20" fill="#F8F6F5"/>
<rect x="120" y="120" width="20" height="40" fill="black"/>
<rect x="120" y="100" width="20" height="20" fill="#B8B8B8"/>
<rect x="60" y="100" width="20" height="20" fill="#B8B8B8"/>
<rect x="40" y="46" width="140" height="20" fill="#B8B8B8"/>
<rect x="60" y="66" width="100" height="54" fill="#B8B8B8"/>
<rect x="80" y="66" width="20" height="20" fill="black"/>
<rect x="120" y="66" width="20" height="20" fill="black"/>
<rect x="180" y="120" width="20" height="20" fill="#F8F6F5"/>
</svg>
