<svg width="200" height="200" viewBox="0 0 200 200" fill="none" xmlns="http://www.w3.org/2000/svg">
<rect y="160" width="20" height="20" fill="#BB9173"/>
<rect x="40" y="60" width="20" height="20" fill="#BB9173"/>
<rect x="40" y="180" width="20" height="20" fill="#BB9173"/>
<rect x="140" y="180" width="20" height="20" fill="#CBAC8F"/>
<rect x="180" y="160" width="20" height="20" fill="#BB9173"/>
<rect x="180" y="80" width="20" height="20" fill="#BB9173"/>
<rect x="60" y="80" width="20" height="20" fill="#BB9173"/>
<rect x="20" y="160" width="20" height="20" fill="#AD8B72"/>
<rect x="40" y="160" width="20" height="20" fill="#CBAC8F"/>
<rect x="60" y="160" width="20" height="20" fill="#AD8B72"/>
<rect x="80" y="160" width="20" height="20" fill="#BB9173"/>
<rect x="100" y="160" width="20" height="20" fill="#CBAC8F"/>
<rect x="120" y="160" width="20" height="20" fill="#BB9173"/>
<rect x="140" y="160" width="20" height="20" fill="#BB9173"/>
<rect x="160" y="160" width="20" height="20" fill="#AD8B72"/>
<rect x="40" y="140" width="20" height="20" fill="#BB9173"/>
<rect y="120" width="20" height="20" fill="#CBAC8F"/>
<rect x="60" y="120" width="20" height="20" fill="#BB9173"/>
<rect x="80" y="120" width="20" height="20" fill="#BB9173"/>
<rect x="160" y="120" width="20" height="20" fill="#BB9173"/>
<rect x="180" y="120" width="20" height="20" fill="#CBAC8F"/>
<rect x="140" y="140" width="20" height="20" fill="#BB9173"/>
<rect x="20" y="120" width="20" height="20" fill="#BB9173"/>
<rect x="40" y="120" width="20" height="20" fill="#AD8B72"/>
<rect x="140" y="100" width="20" height="20" fill="#BB9173"/>
<rect x="140" y="60" width="20" height="20" fill="#CBAC8F"/>
<rect x="100" y="120" width="20" height="20" fill="#AD8B72"/>
<rect x="120" y="120" width="20" height="20" fill="#BB9173"/>
<rect x="140" y="120" width="20" height="20" fill="#BB9173"/>
<rect x="40" y="100" width="20" height="20" fill="#BB9173"/>
<rect y="80" width="20" height="20" fill="#BB9173"/>
<rect x="100" y="80" width="20" height="20" fill="#BB9173"/>
<rect x="120" y="80" width="20" height="20" fill="#CBAC8F"/>
<rect x="140" y="80" width="20" height="20" fill="#BB9173"/>
<rect x="160" y="80" width="20" height="20" fill="#BB9173"/>
<rect x="40" y="80" width="20" height="20" fill="#BB9173"/>
<rect x="20" y="80" width="20" height="20" fill="#BB9173"/>
<rect x="80" y="80" width="20" height="20" fill="#BB9173"/>
</svg>
