<svg width="200" height="200" xmlns="http://www.w3.org/2000/svg" viewBox="0 0 11 11"><style>rect { shape-rendering: crispEdges; }</style><rect x="4" y="1" width="3" height="1" fill="#75454e"/><rect x="2" y="2" width="2" height="2" fill="#75454e"/><rect x="4" y="2" width="3" height="2" fill="#db956d"/><rect x="7" y="2" width="2" height="2" fill="#75454e"/><rect x="3" y="4" width="2" height="1" fill="#9582aa"/><rect x="5" y="4" width="1" height="1" fill="#db956d"/><rect x="6" y="4" width="2" height="1" fill="#9582aa"/><rect x="2" y="5" width="1" height="1" fill="#9582aa"/><rect x="4" y="5" width="3" height="2" fill="#9582aa"/><rect x="8" y="5" width="1" height="1" fill="#9582aa"/><rect x="1" y="6" width="1" height="1" fill="#9582aa"/><rect x="9" y="6" width="1" height="1" fill="#9582aa"/><rect x="0" y="7" width="3" height="2" fill="#d97b5d"/><rect x="4" y="7" width="3" height="3" fill="#8b4243"/><rect x="3" y="10" width="2" height="1" fill="#4e384d"/><rect x="6" y="10" width="2" height="1" fill="#4e384d"/></svg>