<svg width="200" height="200" viewBox="0 0 200 200" fill="none" xmlns="http://www.w3.org/2000/svg">
<rect x="60" y="60" width="20" height="20" fill="#FFE4D0"/>
<rect x="60" y="180" width="20" height="20" fill="#8D837C"/>
<rect x="60" y="160" width="20" height="20" fill="#F8F6F5"/>
<rect x="60" y="100" width="20" height="60" fill="#FFE4D0"/>
<rect x="60" y="60" width="80" height="40" fill="#B8B8B8"/>
<rect x="40" y="40" width="120" height="20" fill="#FFE4D0"/>
<rect x="20" y="80" width="20" height="20" fill="#FFE4D0"/>
<rect x="20" y="60" width="20" height="20" fill="#FFE4D0"/>
<rect x="160" y="60" width="20" height="20" fill="#FFE4D0"/>
<rect x="120" y="180" width="20" height="20" fill="#8D837C"/>
<rect x="120" y="160" width="20" height="20" fill="#F8F6F5"/>
<rect x="120" y="140" width="20" height="20" fill="#FFE4D0"/>
<rect x="120" y="120" width="20" height="20" fill="#B8B8B8"/>
<rect x="120" y="100" width="20" height="20" fill="#B8B8B8"/>
<rect x="60" y="120" width="20" height="20" fill="#B8B8B8"/>
<rect x="60" y="100" width="20" height="20" fill="#B8B8B8"/>
<rect x="80" width="40" height="40" fill="#FFE4D0"/>
<rect x="160" y="80" width="20" height="20" fill="#FFE4D0"/>
<rect x="60" y="40" width="80" height="20" fill="#B8B8B8"/>
</svg>
