<svg width="200" height="200" viewBox="0 0 200 200" fill="none" xmlns="http://www.w3.org/2000/svg">
<g clip-path="url(#clip0)">
<rect x="20" y="60" width="20" height="20" fill="#00A896"/>
<rect x="40" y="60" width="20" height="20" fill="#2F8E6C"/>
<rect x="60" y="60" width="20" height="20" fill="#00A896"/>
<rect x="80" y="60" width="20" height="20" fill="#02C39A"/>
<rect x="60" y="40" width="20" height="20" fill="#02C39A"/>
<rect x="100" y="60" width="20" height="20" fill="#2F8E6C"/>
<rect x="120" y="40" width="20" height="20" fill="#2F8E6C"/>
<rect x="120" y="60" width="20" height="20" fill="#00A896"/>
<rect x="140" y="60" width="20" height="20" fill="#00A896"/>
<rect x="160" y="60" width="20" height="20" fill="#00A896"/>
<rect x="80" y="40" width="20" height="20" fill="#00A896"/>
<rect x="100" y="40" width="20" height="20" fill="#00A896"/>
<rect x="140" y="40" width="20" height="20" fill="#00A896"/>
<rect x="160" y="40" width="20" height="20" fill="#00A896"/>
<rect x="40" y="20" width="20" height="20" fill="#00A896"/>
<rect x="80" y="20" width="20" height="20" fill="#00A896"/>
<rect x="120" y="20" width="20" height="20" fill="#00A896"/>
<rect x="40" y="20" width="20" height="20" fill="#00A896"/>
<rect x="60" y="20" width="20" height="20" fill="#00A896"/>
<rect x="100" y="20" width="20" height="20" fill="#02C39A"/>
<rect x="120" y="20" width="20" height="20" fill="#00A896"/>
<rect x="140" y="20" width="20" height="20" fill="#00A896"/>
<rect x="40" y="40" width="20" height="20" fill="#00A896"/>
<rect x="80" width="20" height="20" fill="#00A896"/>
<rect x="100" width="20" height="20" fill="#00A896"/>
<rect x="40" y="20" width="20" height="20" fill="#02C39A"/>
<rect x="140" y="60" width="20" height="20" fill="#02C39A"/>
<rect x="180" y="180" width="20" height="20" transform="rotate(-180 180 180)" fill="#00A896"/>
<rect x="160" y="180" width="20" height="20" transform="rotate(-180 160 180)" fill="#2F8E6C"/>
<rect x="180" y="160" width="20" height="20" transform="rotate(-180 180 160)" fill="#2F8E6C"/>
<rect x="140" y="180" width="20" height="20" transform="rotate(-180 140 180)" fill="#00A896"/>
<rect x="120" y="180" width="20" height="20" transform="rotate(-180 120 180)" fill="#02C39A"/>
<rect x="140" y="200" width="20" height="20" transform="rotate(-180 140 200)" fill="#02C39A"/>
<rect x="100" y="180" width="20" height="20" transform="rotate(-180 100 180)" fill="#2F8E6C"/>
<rect x="80" y="200" width="20" height="20" transform="rotate(-180 80 200)" fill="#2F8E6C"/>
<rect x="80" y="180" width="20" height="20" transform="rotate(-180 80 180)" fill="#00A896"/>
<rect x="60" y="180" width="20" height="20" transform="rotate(-180 60 180)" fill="#00A896"/>
<rect x="120" y="200" width="20" height="20" transform="rotate(-180 120 200)" fill="#00A896"/>
<rect x="100" y="200" width="20" height="20" transform="rotate(-180 100 200)" fill="#00A896"/>
<rect x="60" y="200" width="20" height="20" transform="rotate(-180 60 200)" fill="#00A896"/>
<rect x="160" y="200" width="20" height="20" transform="rotate(-180 160 200)" fill="#00A896"/>
<rect x="60" y="180" width="20" height="20" transform="rotate(-180 60 180)" fill="#02C39A"/>
<rect x="40" y="100" width="20" height="20" transform="rotate(-180 40 100)" fill="#00A896"/>
<rect x="80" y="120" width="20" height="20" fill="#00A896"/>
<rect x="100" y="120" width="20" height="20" fill="#00A896"/>
<rect x="120" y="120" width="20" height="20" fill="#00A896"/>
<rect x="140" y="120" width="20" height="20" fill="#00A896"/>
<rect x="160" y="120" width="20" height="20" fill="#02C39A"/>
<rect x="180" y="120" width="20" height="20" fill="#02C39A"/>
<rect x="80" y="100" width="20" height="20" fill="#02C39A"/>
<rect x="100" y="100" width="20" height="20" fill="#2F8E6C"/>
<rect x="120" y="100" width="20" height="20" fill="#00A896"/>
<rect x="160" y="100" width="20" height="20" fill="#00A896"/>
<rect x="180" y="100" width="20" height="20" fill="#00A896"/>
<rect x="80" y="80" width="20" height="20" fill="#00A896"/>
<rect x="100" y="80" width="20" height="20" fill="#02C39A"/>
<rect x="120" y="80" width="20" height="20" fill="#00A896"/>
<rect x="140" y="80" width="20" height="20" fill="#00A896"/>
<rect x="160" y="80" width="20" height="20" fill="#00A896"/>
<rect x="180" y="80" width="20" height="20" fill="#02C39A"/>
<rect x="20" y="140" width="20" height="20" fill="#00A896"/>
<rect x="40" y="140" width="20" height="20" fill="#00A896"/>
<rect x="60" y="140" width="20" height="20" fill="#00A896"/>
<rect x="80" y="140" width="20" height="20" fill="#00A896"/>
<rect x="100" y="140" width="20" height="20" fill="#02C39A"/>
<rect x="120" y="140" width="20" height="20" fill="#02C39A"/>
<rect x="20" y="120" width="20" height="20" fill="#02C39A"/>
<rect x="40" y="120" width="20" height="20" fill="#2F8E6C"/>
<rect x="60" y="120" width="20" height="20" fill="#00A896"/>
<rect x="140" y="140" width="20" height="20" fill="#00A896"/>
<rect x="120" y="120" width="20" height="20" fill="#00A896"/>
<rect x="20" y="100" width="20" height="20" fill="#00A896"/>
<rect x="40" y="100" width="20" height="20" fill="#02C39A"/>
<rect x="60" y="100" width="20" height="20" fill="#00A896"/>
<rect x="60" y="80" width="20" height="20" fill="#00A896"/>
<rect x="100" y="100" width="20" height="20" fill="#00A896"/>
<rect x="120" y="100" width="20" height="20" fill="#02C39A"/>
</g>
<defs>
<clipPath id="clip0">
<rect width="200" height="200" fill="white" transform="translate(200 200) rotate(-180)"/>
</clipPath>
</defs>
</svg>
