<svg width="200" height="200" viewBox="0 0 200 200" fill="none" xmlns="http://www.w3.org/2000/svg">
<g clip-path="url(#clip0_234_79)">
<rect width="200" height="160" fill="#B4A397"/>
<rect y="180" width="20" height="20" fill="#02C39A"/>
<rect x="20" y="180" width="20" height="20" fill="#02C39A"/>
<rect x="40" y="180" width="20" height="20" fill="#02C39A"/>
<rect x="60" y="180" width="20" height="20" fill="#02C39A"/>
<rect x="80" y="180" width="20" height="20" fill="#02C39A"/>
<rect x="100" y="180" width="20" height="20" fill="#02C39A"/>
<rect x="120" y="180" width="20" height="20" fill="#02C39A"/>
<rect x="20" y="20" width="160" height="20" transform="rotate(90 20 20)" fill="#E8E8E8"/>
<rect x="80" width="180" height="20" transform="rotate(90 80 0)" fill="#AD8B72"/>
<rect x="140" width="180" height="20" transform="rotate(90 140 0)" fill="#AD8B72"/>
<rect x="20" width="180" height="20" transform="rotate(90 20 0)" fill="#AD8B72"/>
<rect x="200" width="180" height="20" transform="rotate(90 200 0)" fill="#AD8B72"/>
<rect x="140" y="180" width="20" height="20" fill="#02C39A"/>
<rect x="160" y="180" width="20" height="20" fill="#02C39A"/>
<rect x="180" y="180" width="20" height="20" fill="#00A896"/>
<rect x="40" y="180" width="20" height="20" fill="#00A896"/>
<rect y="140" width="200" height="20" fill="#868686"/>
<rect x="60" width="100" height="40" transform="rotate(90 60 0)" fill="#92847C"/>
<rect x="180" width="100" height="40" transform="rotate(90 180 0)" fill="#92847C"/>
</g>
<defs>
<clipPath id="clip0_234_79">
<rect width="200" height="200" fill="white"/>
</clipPath>
</defs>
</svg>
